<?xml version="1.0" encoding="UTF-8"?>
<svg version="1.1" xmlns="http://www.w3.org/2000/svg" width="258" height="258">
<path d="M0 0 C85.14 0 170.28 0 258 0 C258 85.14 258 170.28 258 258 C172.86 258 87.72 258 0 258 C0 172.86 0 87.72 0 0 Z " fill="#F2DF1C" transform="translate(0,0)"/>
<path d="M0 0 C4.07278847 3.33922807 7.83831623 7.13621151 10 12 C8.44683332 16.65950005 4.64599353 18.18103191 0.625 20.75 C-0.15617187 21.26949219 -0.93734375 21.78898437 -1.7421875 22.32421875 C-2.495 22.81019531 -3.2478125 23.29617187 -4.0234375 23.796875 C-4.71356934 24.24385742 -5.40370117 24.69083984 -6.11474609 25.15136719 C-8 26 -8 26 -11 25 C-12.62004233 23.27870503 -14.03875786 21.45074522 -15.5 19.59375 C-17.60187379 17.3605091 -19.53028602 17.0443538 -22.5234375 16.76171875 C-26.89759949 16.6478707 -30.15730411 16.61996068 -34.1875 18.4375 C-36.47223323 21.66764008 -36.52267612 23.80765377 -36.46875 27.68359375 C-35.84628087 30.75962871 -34.93859016 32.51035865 -33 35 C-30.63527646 36.46443324 -28.44246752 37.65491969 -25.9375 38.8125 C-25.24011719 39.14942871 -24.54273438 39.48635742 -23.82421875 39.83349609 C-19.21331483 42.03777796 -14.53795833 44.08211195 -9.84667969 46.1081543 C0.54471401 50.61087535 8.75280815 54.44999236 14 65 C14.52980469 66.01578125 15.05960937 67.0315625 15.60546875 68.078125 C17.61322237 72.86496179 17.53430715 77.68770591 17.5 82.8125 C17.49141968 84.28408569 17.49141968 84.28408569 17.48266602 85.78540039 C17.30766748 92.84603162 16.55509297 98.36423447 12 104 C11.5153125 104.63550781 11.030625 105.27101563 10.53125 105.92578125 C4.67734161 112.62621071 -4.19876416 117.06499573 -13 118 C-39.85488547 119.57481577 -39.85488547 119.57481577 -51 113 C-52.45212891 112.14535156 -52.45212891 112.14535156 -53.93359375 111.2734375 C-60.69496176 106.81478777 -66.2166282 101.22810847 -70 94 C-68.42031927 89.2609578 -64.40767053 88.02477492 -60.1875 85.6875 C-58.95676758 84.96723633 -58.95676758 84.96723633 -57.70117188 84.23242188 C-56.90646484 83.78833984 -56.11175781 83.34425781 -55.29296875 82.88671875 C-54.5661792 82.47639404 -53.83938965 82.06606934 -53.09057617 81.64331055 C-51 81 -51 81 -48.81616211 81.78515625 C-46.83585131 83.10980022 -45.76570467 84.38854968 -44.375 86.3125 C-40.09840529 91.43583903 -34.83153884 94.38479517 -28.2265625 95.4453125 C-21.89617369 95.71129522 -16.34191487 94.5104012 -11 91 C-8.29817177 86.94725765 -8.36146796 83.75538337 -9 79 C-12.40981615 72.18036771 -20.83273145 69.84932976 -27.52734375 67.1875 C-36.72419358 63.50802929 -44.8498332 60.10700684 -52 53 C-52.58910156 52.42507812 -53.17820313 51.85015625 -53.78515625 51.2578125 C-60.3374225 44.27087503 -62.7293945 36.50655204 -62.5625 27.0625 C-62.54606445 25.74427246 -62.54606445 25.74427246 -62.52929688 24.39941406 C-62.19185258 14.30233092 -58.67697181 7.65746978 -51.31640625 0.7578125 C-36.48844123 -10.49443752 -15.36257464 -9.67461312 0 0 Z " fill="#070908" transform="translate(229,128)"/>
<path d="M0 0 C8.58 0 17.16 0 26 0 C26.04532813 11.52729107 26.08196051 23.05452216 26.10362434 34.58188248 C26.11402605 39.9354816 26.12811873 45.28901615 26.15087891 50.64257812 C26.17273679 55.81675596 26.18459575 60.990872 26.18975449 66.16509247 C26.19342713 68.13127362 26.20059836 70.09745169 26.21146011 72.06360626 C26.37151134 102.25821571 26.37151134 102.25821571 16.47265625 113.77734375 C8.49385696 121.44401397 -0.97609181 123.44183681 -11.6875 123.5 C-13.00548584 123.50942627 -13.00548584 123.50942627 -14.35009766 123.51904297 C-25.55339561 123.30225926 -34.76418843 119.26147447 -42.8125 111.5 C-46.63504019 107.47673281 -49 104.72578687 -49 99 C-47.50292969 97.64379883 -47.50292969 97.64379883 -45.421875 96.45703125 C-44.67292969 96.02326172 -43.92398438 95.58949219 -43.15234375 95.14257812 C-42.35957031 94.70365234 -41.56679687 94.26472656 -40.75 93.8125 C-39.58404297 93.13670898 -39.58404297 93.13670898 -38.39453125 92.44726562 C-34.94374195 90.48002079 -31.91345605 88.82160653 -28 88 C-27.68546875 88.54269531 -27.3709375 89.08539063 -27.046875 89.64453125 C-26.61890625 90.35996094 -26.1909375 91.07539063 -25.75 91.8125 C-25.33234375 92.52019531 -24.9146875 93.22789062 -24.484375 93.95703125 C-22.80017111 96.27502765 -21.49972649 97.58407101 -19 99 C-15.86470017 99.51179179 -15.86470017 99.51179179 -12.5 99.4375 C-11.3759375 99.45683594 -10.251875 99.47617188 -9.09375 99.49609375 C-5.40000181 98.90378817 -4.28400965 97.89271976 -2 95 C-0.33121557 91.66243113 -0.81918235 87.90773803 -0.79467773 84.23583984 C-0.78477814 83.32846573 -0.77487854 82.42109161 -0.76467896 81.48622131 C-0.73301391 78.4778202 -0.70828676 75.46940327 -0.68359375 72.4609375 C-0.66302854 70.37870872 -0.64203219 68.29648416 -0.62062073 66.21426392 C-0.5653553 60.72667855 -0.51596576 55.23905524 -0.46777344 49.75140381 C-0.41759103 44.15454724 -0.36188797 38.55774596 -0.30664062 32.9609375 C-0.19900436 21.97400376 -0.09808153 10.9870232 0 0 Z " fill="#090B08" transform="translate(120,123)"/>
</svg>
